# xmcd
#
# Track frame offsets: 
#        150
#        20812
#        44720
#        64865
#        86180
#        106355
#        132145
#        154112
#        178297
#        198027
#        211642
#        228952
#        248960
#        263795
#        289645
#        311532
#
# Disc length: 4453 seconds
#
# Revision: 0
# Processed by: cddbd v1.5.2PL0 Copyright (c) Steve Scherf et al.
# Submitted via: ExactAudioCopy v1.0b4
#
DISCID=e4116310
DTITLE=Nonoy Zuniga - Tinig ng Langit
DYEAR=1997
DGENRE=Soul
TTITLE0=Tag-araw... Tag-ulan
TTITLE1=Tagos sa puso't laman
TTITLE2=Tinig ng langit
TTITLE3=Bituing walang ningning
TTITLE4=Doon lang
TTITLE5=Sana'y wala nang wakas
TTITLE6=May minamahal
TTITLE7=Kaputol ng isang awit
TTITLE8=Kay tagal
TTITLE9=Magandang gabi
TTITLE10=We are friends
TTITLE11=If ever I would leave you
TTITLE12=When love was young
TTITLE13=You don't have to see me
TTITLE14=You'll never walk alone
TTITLE15=Your love is my life
EXTD=
EXTT0=
EXTT1=
EXTT2=
EXTT3=
EXTT4=
EXTT5=
EXTT6=
EXTT7=
EXTT8=
EXTT9=
EXTT10=
EXTT11=
EXTT12=
EXTT13=
EXTT14=
EXTT15=
PLAYORDER=
